<svg width="400" height="400" viewBox="0 0 400 400" fill="none" xmlns="http://www.w3.org/2000/svg">
<path d="M366.667 316.667C366.667 325.507 363.155 333.986 356.904 340.237C350.652 346.488 342.174 350 333.333 350H66.6667C57.8261 350 49.3477 346.488 43.0964 340.237C36.8452 333.986 33.3333 325.507 33.3333 316.667V83.3333C33.3333 74.4928 36.8452 66.0143 43.0964 59.7631C49.3477 53.5119 57.8261 50 66.6667 50H150L183.333 100H333.333C342.174 100 350.652 103.512 356.904 109.763C363.155 116.014 366.667 124.493 366.667 133.333V316.667Z" stroke="white" stroke-width="10" stroke-linecap="round" stroke-linejoin="round"/>
<g clip-path="url(#clip0_29_12)">
<path d="M283.25 22H186.25C179.819 22 173.65 24.3178 169.103 28.4436C164.555 32.5694 162 38.1652 162 44V66L172.5 83L179.636 94.5L186.5 104.5L189.5 112L162 110V132V220C162 225.835 164.555 231.431 169.103 235.556C173.65 239.682 179.819 242 186.25 242H331.75C338.182 242 344.35 239.682 348.897 235.556C353.445 231.431 356 225.835 356 220V88L283.25 22Z" stroke="white" stroke-width="10" stroke-linecap="round" stroke-linejoin="round"/>
<path d="M283 22V88H356" stroke="white" stroke-width="10" stroke-linecap="round" stroke-linejoin="round"/>
<path d="M312 118H224" stroke="white" stroke-width="10" stroke-linecap="round" stroke-linejoin="round"/>
<path d="M312 162H224" stroke="white" stroke-width="10" stroke-linecap="round" stroke-linejoin="round"/>
<path d="M235 74H223H211" stroke="white" stroke-width="10" stroke-linecap="round" stroke-linejoin="round"/>
<rect x="128" y="105" width="234" height="147" rx="29" fill="#1A1A40"/>
</g>
<defs>
<clipPath id="clip0_29_12">
<rect width="264" height="264" fill="white" transform="translate(136)"/>
</clipPath>
</defs>
</svg>
